<?xml version="1.0" encoding="UTF-8" standalone="no"?>
<svg
   xmlns:dc="http://purl.org/dc/elements/1.1/"
   xmlns:cc="http://creativecommons.org/ns#"
   xmlns:rdf="http://www.w3.org/1999/02/22-rdf-syntax-ns#"
   xmlns:svg="http://www.w3.org/2000/svg"
   xmlns="http://www.w3.org/2000/svg"
   id="svg8"
   version="1.1"
   viewBox="0 0 132.29166 132.29167"
   height="500"
   width="500">
  <defs
     id="defs2">
    <mask
       id="mask4529"
       maskUnits="userSpaceOnUse">
      <path
         style="opacity:1;fill:#d45500;fill-opacity:1;stroke:none;stroke-width:2.95103526;stroke-linecap:square;stroke-linejoin:round;stroke-miterlimit:4;stroke-dasharray:none;stroke-opacity:1;paint-order:stroke fill markers"
         d="m -165.76665,66.145841 a 65.0875,65.0875 0 0 0 -65.0875,-65.087501 65.0875,65.0875 0 0 0 -65.0875,65.087501 65.0875,65.0875 0 0 0 65.0875,65.087489 65.0875,65.0875 0 0 0 65.0875,-65.087489 z m -13.0175,0 a 52.069997,52.069997 0 0 1 -52.07,52.069999 52.069997,52.069997 0 0 1 -52.07,-52.069999 52.069997,52.069997 0 0 1 52.07,-52.070001 52.069997,52.069997 0 0 1 52.07,52.070001 z"
         id="path4531" />
    </mask>
  </defs>
  <metadata
     id="metadata5">
    <rdf:RDF>
      <cc:Work
         rdf:about="">
        <dc:format>image/svg+xml</dc:format>
        <dc:type
           rdf:resource="http://purl.org/dc/dcmitype/StillImage" />
        <dc:title></dc:title>
      </cc:Work>
    </rdf:RDF>
  </metadata>
  <g
     transform="translate(0,-164.70832)"
     id="layer1">
    <path
       d="m -167.65731,66.145836 a 63.19685,62.69479 0 0 1 -16.38033,42.113384 l -46.81652,-42.113384 z"
       mask="url(#mask4529)"
       transform="rotate(-90)"
       id="path4485"
       style="opacity:0.91199999;fill:#ffd42a;fill-opacity:1;stroke:none;stroke-width:3.05900002;stroke-linecap:square;stroke-linejoin:round;stroke-miterlimit:4;stroke-dasharray:none;stroke-opacity:1;paint-order:stroke fill markers" />
  </g>
</svg>
